<svg xmlns="http://www.w3.org/2000/svg">
    <defs>
        <linearGradient x1="37.621" y1="10.379" x2="7.879" y2="40.121" gradientUnits="userSpaceOnUse" id="a">
            <stop offset="0" stop-color="#8960FE"/>
            <stop offset="1" stop-color="#fff"/>
        </linearGradient>
    </defs>
    <g fill="none" stroke-width="none" stroke-linecap="none" stroke-linejoin="none" stroke-miterlimit="10" font-family="none" font-weight="none" font-size="none" text-anchor="none" style="mix-blend-mode:normal">
        <path d="m23.5 13.5-4.887-4.073a4 4 0 0 0-2.561-.927H8.5a3 3 0 0 0-3 3v25a3 3 0 0 0 3 3h31a3 3 0 0 0 3-3v-20a3 3 0 0 0-3-3z" fill="url(#a)" transform="scale(5.33333)"/>
        <path d="M226.667 146.155V88c0-8.837-7.163-16-16-16h-85.334L99.27 50.277a21.337 21.337 0 0 0-13.658-4.944H45.333c-8.837 0-16 7.163-16 16v32.059M29.333 129.36v65.307c0 8.837 7.163 16 16 16h165.334c8.837 0 16-7.163 16-16v-15.942" stroke="#8960FE" stroke-width="15.99999" stroke-linecap="round" stroke-linejoin="round"/>
    </g>
</svg>
