<svg id="Layer_1" xmlns="http://www.w3.org/2000/svg">
  <style>
    .st31 {
      fill: none;
      stroke: #8960fe;
      stroke-width: 3;
      stroke-linecap: round;
      stroke-linejoin: round;
      stroke-miterlimit: 10;
    }
  </style>
  <linearGradient id="SVGID_1_" gradientUnits="userSpaceOnUse" x1="37.732" y1="10.268" x2="7.833" y2="40.167">
    <stop offset="0" style="stop-color:#8960fe"/>
    <stop offset="1" style="stop-color:#fff"/>
  </linearGradient>
  <path d="M32.723 13.289h-9.697L18.29 9.342a3.973 3.973 0 0 0-2.543-.921H8.48a2.98 2.98 0 0 0-2.98 2.98v25.198a2.98 2.98 0 0 0 2.98 2.98h31.04a2.98 2.98 0 0 0 2.98-2.98V16.27a2.98 2.98 0 0 0-2.98-2.98H32.723z" style="fill:url(#SVGID_1_)"/>
  <path class="st31" d="M5.5 29.771V36.5a3 3 0 0 0 3 3h31a3 3 0 0 0 3-3v-20a3 3 0 0 0-3-3h-1.053M32.723 13.5H23.5l-4.887-4.073a4 4 0 0 0-2.561-.927H8.5a3 3 0 0 0-3 3v11.67"/>
  <path class="st31" d="M6 16.5h12.053c.936 0 1.841-.328 2.56-.927l2.339-1.95"/>
</svg>